<?xml version="1.0" encoding="utf-8"?>
<svg xmlns="http://www.w3.org/2000/svg" style="margin: auto; background: none; display: block; shape-rendering: auto;" width="289" height="227" preserveAspectRatio="xMidYMid">
<style type="text/css">
  text {
    text-anchor: middle; font-size: 32px; opacity: 0;
  }
</style>
<g style="transform-origin: 144.5px 113.5px; transform: scale(0.761905);">
<g transform="translate(144.5,113.5)">
  <g transform="translate(0,0)"><g class="path" style="opacity: 1; transform-origin: -143.11px -2.70087px; animation: 1s linear -0.605s infinite normal forwards running fade-dffb8427-00e2-4711-b79b-222665ae2eb5;"><path d="M27.25-1.76L27.25 0.12L27.25 0.12Q27.11 0.14 26.84 0.23L26.84 0.23L26.84 0.23Q26.58 0.31 26.21 0.41L26.21 0.41L26.21 0.41Q25.84 0.51 25.40 0.59L25.40 0.59L25.40 0.59Q24.96 0.68 24.49 0.68L24.49 0.68L24.49 0.68Q22.60 0.68 21.43 0.11L21.43 0.11L21.43 0.11Q20.26-0.45 19.53-1.38L19.53-1.38L19.53-1.38Q18.81-2.32 18.40-3.51L18.40-3.51L18.40-3.51Q17.99-4.70 17.64-5.94L17.64-5.94L17.64-5.94Q17.29-7.18 16.87-8.37L16.87-8.37L16.87-8.37Q16.45-9.56 15.69-10.49L15.69-10.49L15.69-10.49Q14.93-11.42 13.72-11.99L13.72-11.99L13.72-11.99Q12.51-12.55 10.58-12.55L10.58-12.55L10.58-12.55Q10.25-12.55 9.93-12.54L9.93-12.54L9.93-12.54Q9.60-12.53 9.34-12.51L9.34-12.51L9.34-12.51Q9.08-12.49 8.90-12.48L8.90-12.48L8.90-12.48Q8.72-12.47 8.70-12.47L8.70-12.47L8.70-2.89L8.70-2.89Q8.70-2.58 8.91-2.30L8.91-2.30L8.91-2.30Q9.13-2.01 9.58-1.97L9.58-1.97L11.79-1.80L11.79 0L1.35 0L1.35-1.80L3.53-1.97L3.53-1.97Q3.98-2.01 4.21-2.30L4.21-2.30L4.21-2.30Q4.45-2.58 4.45-2.89L4.45-2.89L4.45-25.29L4.45-25.29Q4.45-25.59 4.21-25.88L4.21-25.88L4.21-25.88Q3.98-26.17 3.53-26.21L3.53-26.21L1.35-26.37L1.35-28.18L12.30-28.18L12.30-28.18Q14.70-28.18 16.61-27.79L16.61-27.79L16.61-27.79Q18.52-27.40 19.85-26.52L19.85-26.52L19.85-26.52Q21.18-25.63 21.89-24.21L21.89-24.21L21.89-24.21Q22.60-22.78 22.60-20.71L22.60-20.71L22.60-20.71Q22.60-19.05 22.03-17.86L22.03-17.86L22.03-17.86Q21.45-16.67 20.50-15.85L20.50-15.85L20.50-15.85Q19.54-15.03 18.29-14.52L18.29-14.52L18.29-14.52Q17.04-14.01 15.71-13.70L15.71-13.70L15.71-13.70Q17.41-13.29 18.44-12.56L18.44-12.56L18.44-12.56Q19.46-11.83 20.06-10.91L20.06-10.91L20.06-10.91Q20.65-9.99 20.94-8.95L20.94-8.95L20.94-8.95Q21.23-7.92 21.45-6.90L21.45-6.90L21.45-6.90Q21.68-5.89 21.96-4.96L21.96-4.96L21.96-4.96Q22.25-4.04 22.86-3.32L22.86-3.32L22.86-3.32Q23.46-2.60 24.50-2.18L24.50-2.18L24.50-2.18Q25.53-1.76 27.25-1.76L27.25-1.76zM18.03-20.53L18.03-20.53L18.03-20.53Q18.03-21.88 17.62-22.92L17.62-22.92L17.62-22.92Q17.21-23.95 16.31-24.67L16.31-24.67L16.31-24.67Q15.42-25.39 14.02-25.76L14.02-25.76L14.02-25.76Q12.61-26.13 10.62-26.13L10.62-26.13L8.70-26.13L8.70-14.62L8.70-14.62Q8.74-14.62 8.98-14.61L8.98-14.61L8.98-14.61Q9.23-14.60 9.55-14.60L9.55-14.60L9.55-14.60Q9.86-14.60 10.20-14.59L10.20-14.59L10.20-14.59Q10.54-14.58 10.79-14.58L10.79-14.58L10.79-14.58Q12.53-14.58 13.88-14.88L13.88-14.88L13.88-14.88Q15.24-15.18 16.16-15.87L16.16-15.87L16.16-15.87Q17.08-16.57 17.55-17.71L17.55-17.71L17.55-17.71Q18.03-18.85 18.03-20.53" fill="#f5f5f5" stroke="none" stroke-width="none" transform="translate(-157.41000366210938,11.049133758544922)" style="fill: rgb(245, 245, 245);"></path></g><g class="path" style="opacity: 1; transform-origin: -117.91px -3.04087px; animation: 1s linear -0.55s infinite normal forwards running fade-dffb8427-00e2-4711-b79b-222665ae2eb5;"><path d="M50.39 0L28.61 0L28.61-1.80L30.78-1.97L30.78-1.97Q31.23-2.01 31.47-2.30L31.47-2.30L31.47-2.30Q31.71-2.58 31.71-2.89L31.71-2.89L31.71-25.29L31.71-25.29Q31.71-25.59 31.47-25.88L31.47-25.88L31.47-25.88Q31.23-26.17 30.78-26.21L30.78-26.21L28.61-26.37L28.61-28.18L49.01-28.18L49.01-21.92L46.49-21.92L45.86-25.37L45.86-25.37Q45.81-25.68 45.60-25.92L45.60-25.92L45.60-25.92Q45.38-26.17 45.10-26.17L45.10-26.17L35.99-26.17L35.99-15.71L42.29-15.71L42.29-15.71Q42.57-15.71 42.81-15.96L42.81-15.96L42.81-15.96Q43.05-16.20 43.05-16.43L43.05-16.43L43.48-19.32L45.61-19.32L45.61-9.95L43.48-9.95L43.05-12.86L43.05-12.86Q43.05-13.08 42.80-13.35L42.80-13.35L42.80-13.35Q42.55-13.62 42.29-13.62L42.29-13.62L35.99-13.62L35.99-2.05L46.61-2.05L46.61-2.05Q46.88-2.05 47.11-2.34L47.11-2.34L47.11-2.34Q47.33-2.63 47.37-2.85L47.37-2.85L48.13-7.01L50.39-7.01L50.39 0" fill="#f5f5f5" stroke="none" stroke-width="none" transform="translate(-157.41000366210938,11.049133758544922)" style="fill: rgb(131, 26, 25);"></path></g><g class="path" style="opacity: 1; transform-origin: -94.73px -3.03587px; animation: 1s linear -0.495s infinite normal forwards running fade-dffb8427-00e2-4711-b79b-222665ae2eb5;"><path d="M71.98-7.90L71.98-7.90L71.98-7.90Q71.98-6.30 71.36-4.76L71.36-4.76L71.36-4.76Q70.73-3.22 69.38-2.01L69.38-2.01L69.38-2.01Q68.02-0.80 65.91-0.06L65.91-0.06L65.91-0.06Q63.80 0.68 60.85 0.68L60.85 0.68L60.85 0.68Q59.12 0.68 57.76 0.43L57.76 0.43L57.76 0.43Q56.40 0.18 55.41-0.10L55.41-0.10L55.41-0.10Q54.28-0.45 53.38-0.88L53.38-0.88L53.38-8.33L56.03-8.33L56.58-3.57L56.58-3.57Q56.62-3.32 56.84-3.04L56.84-3.04L56.84-3.04Q57.05-2.75 57.28-2.65L57.28-2.65L57.63-2.46L57.63-2.46Q57.93-2.32 58.47-2.14L58.47-2.14L58.47-2.14Q59.00-1.97 59.77-1.83L59.77-1.83L59.77-1.83Q60.54-1.68 61.52-1.68L61.52-1.68L61.52-1.68Q62.86-1.68 63.99-2.02L63.99-2.02L63.99-2.02Q65.13-2.36 65.95-2.99L65.95-2.99L65.95-2.99Q66.77-3.63 67.23-4.55L67.23-4.55L67.23-4.55Q67.70-5.48 67.70-6.64L67.70-6.64L67.70-6.64Q67.70-7.92 66.97-8.87L66.97-8.87L66.97-8.87Q66.24-9.82 65.14-10.57L65.14-10.57L65.14-10.57Q64.05-11.32 62.75-11.92L62.75-11.92L62.75-11.92Q61.46-12.51 60.31-13.06L60.31-13.06L60.31-13.06Q59.02-13.68 57.84-14.33L57.84-14.33L57.84-14.33Q56.66-14.99 55.77-15.85L55.77-15.85L55.77-15.85Q54.88-16.71 54.36-17.87L54.36-17.87L54.36-17.87Q53.83-19.03 53.83-20.63L53.83-20.63L53.83-20.63Q53.83-22.50 54.57-24.01L54.57-24.01L54.57-24.01Q55.31-25.53 56.61-26.61L56.61-26.61L56.61-26.61Q57.91-27.69 59.69-28.27L59.69-28.27L59.69-28.27Q61.46-28.85 63.53-28.85L63.53-28.85L63.53-28.85Q64.66-28.85 65.65-28.73L65.65-28.73L65.65-28.73Q66.63-28.61 67.50-28.41L67.50-28.41L67.50-28.41Q68.37-28.22 69.13-27.98L69.13-27.98L69.13-27.98Q69.89-27.75 70.57-27.54L70.57-27.54L70.94-27.42L70.94-20.88L68.54-20.88L67.90-24.90L67.90-24.90Q67.86-25.18 67.65-25.32L67.65-25.32L67.65-25.32Q67.43-25.45 67.25-25.63L67.25-25.63L67.25-25.63Q67.16-25.70 66.92-25.85L66.92-25.85L66.92-25.85Q66.67-26.00 66.23-26.17L66.23-26.17L66.23-26.17Q65.79-26.33 65.13-26.46L65.13-26.46L65.13-26.46Q64.48-26.58 63.59-26.58L63.59-26.58L63.59-26.58Q62.32-26.58 61.32-26.21L61.32-26.21L61.32-26.21Q60.31-25.84 59.62-25.17L59.62-25.17L59.62-25.17Q58.92-24.51 58.54-23.60L58.54-23.60L58.54-23.60Q58.16-22.70 58.16-21.64L58.16-21.64L58.16-21.64Q58.16-20.67 58.54-19.88L58.54-19.88L58.54-19.88Q58.92-19.09 59.67-18.43L59.67-18.43L59.67-18.43Q60.42-17.76 61.50-17.19L61.50-17.19L61.50-17.19Q62.59-16.61 64.00-16.08L64.00-16.08L64.00-16.08Q65.91-15.36 67.40-14.58L67.40-14.58L67.40-14.58Q68.89-13.80 69.90-12.84L69.90-12.84L69.90-12.84Q70.92-11.87 71.45-10.67L71.45-10.67L71.45-10.67Q71.98-9.47 71.98-7.90" fill="#f5f5f5" stroke="none" stroke-width="none" transform="translate(-157.41000366210938,11.049133758544922)" style="fill: rgb(194, 66, 41);"></path></g><g class="path" style="opacity: 1; transform-origin: -71.205px -3.04087px; animation: 1s linear -0.44s infinite normal forwards running fade-dffb8427-00e2-4711-b79b-222665ae2eb5;"><path d="M98.11-21.47L95.63-21.47L95.03-25.41L95.03-25.41Q94.97-25.74 94.80-25.93L94.80-25.93L94.80-25.93Q94.62-26.13 94.34-26.13L94.34-26.13L88.33-26.13L88.33-2.89L88.33-2.89Q88.33-2.58 88.54-2.30L88.54-2.30L88.54-2.30Q88.76-2.01 89.21-1.97L89.21-1.97L91.90-1.80L91.90 0L80.51 0L80.51-1.80L83.20-1.97L83.20-1.97Q83.65-2.01 83.87-2.30L83.87-2.30L83.87-2.30Q84.08-2.58 84.08-2.89L84.08-2.89L84.08-26.13L78.03-26.13L78.03-26.13Q77.75-26.13 77.55-25.93L77.55-25.93L77.55-25.93Q77.36-25.74 77.31-25.41L77.31-25.41L76.74-21.47L74.30-21.47L74.30-28.18L98.11-28.18L98.11-21.47" fill="#f5f5f5" stroke="none" stroke-width="none" transform="translate(-157.41000366210938,11.049133758544922)" style="fill: rgb(221, 132, 55);"></path></g><g class="path" style="opacity: 1; transform-origin: -44.475px -3.37587px; animation: 1s linear -0.385s infinite normal forwards running fade-dffb8427-00e2-4711-b79b-222665ae2eb5;"><path d="M126.88 0L116.89 0L116.89-1.80L119.31-2.01L119.31-2.01Q119.48-2.01 119.62-2.23L119.62-2.23L119.62-2.23Q119.77-2.44 119.77-2.63L119.77-2.63L119.77-2.63Q119.77-2.71 119.75-2.73L119.75-2.73L116.85-10.42L107.15-10.42L104.36-2.85L104.36-2.85Q104.34-2.81 104.34-2.73L104.34-2.73L104.34-2.73Q104.34-2.48 104.56-2.25L104.56-2.25L104.56-2.25Q104.77-2.01 104.96-2.01L104.96-2.01L107.44-1.80L107.44 0L98.99 0L98.99-1.80L101.43-2.32L111.21-28.85L114.37-28.85L124.11-2.93L124.11-2.93Q124.26-2.50 124.39-2.36L124.39-2.36L124.39-2.36Q124.52-2.21 125.00-2.13L125.00-2.13L126.88-1.80L126.88 0zM116.09-12.43L111.97-23.44L107.89-12.43L116.09-12.43" fill="#f5f5f5" stroke="none" stroke-width="none" transform="translate(-157.41000366210938,11.049133758544922)" style="fill: rgb(238, 180, 64);"></path></g><g class="path" style="opacity: 1; transform-origin: -15.29px -2.70087px; animation: 1s linear -0.33s infinite normal forwards running fade-dffb8427-00e2-4711-b79b-222665ae2eb5;"><path d="M155.86-26.37L153.42-26.21L153.42-26.21Q152.97-26.17 152.75-25.88L152.75-25.88L152.75-25.88Q152.54-25.59 152.54-25.29L152.54-25.29L152.54-9.33L152.54-9.33Q152.54-6.75 151.84-4.86L151.84-4.86L151.84-4.86Q151.14-2.97 149.78-1.74L149.78-1.74L149.78-1.74Q148.42-0.51 146.40 0.08L146.40 0.08L146.40 0.08Q144.38 0.68 141.75 0.68L141.75 0.68L141.75 0.68Q136.54 0.68 134.02-1.85L134.02-1.85L134.02-1.85Q131.50-4.37 131.50-9.33L131.50-9.33L131.50-25.29L131.50-25.29Q131.50-25.59 131.28-25.88L131.28-25.88L131.28-25.88Q131.07-26.17 130.61-26.21L130.61-26.21L128.38-26.37L128.38-28.18L139.06-28.18L139.06-26.37L136.66-26.21L136.66-26.21Q136.21-26.17 136.00-25.88L136.00-25.88L136.00-25.88Q135.78-25.59 135.78-25.29L135.78-25.29L135.78-10.42L135.78-10.42Q135.78-8.57 136.07-7.04L136.07-7.04L136.07-7.04Q136.36-5.52 137.14-4.43L137.14-4.43L137.14-4.43Q137.92-3.34 139.30-2.74L139.30-2.74L139.30-2.74Q140.68-2.13 142.88-2.13L142.88-2.13L142.88-2.13Q145.05-2.13 146.45-2.77L146.45-2.77L146.45-2.77Q147.84-3.40 148.64-4.52L148.64-4.52L148.64-4.52Q149.44-5.64 149.75-7.16L149.75-7.16L149.75-7.16Q150.06-8.67 150.06-10.42L150.06-10.42L150.06-25.29L150.06-25.29Q150.06-25.59 149.82-25.88L149.82-25.88L149.82-25.88Q149.58-26.17 149.13-26.21L149.13-26.21L146.73-26.37L146.73-28.18L155.86-28.18L155.86-26.37" fill="#f5f5f5" stroke="none" stroke-width="none" transform="translate(-157.41000366210938,11.049133758544922)" style="fill: rgb(216, 206, 167);"></path></g><g class="path" style="opacity: 1; transform-origin: 13.88px -2.70087px; animation: 1s linear -0.275s infinite normal forwards running fade-dffb8427-00e2-4711-b79b-222665ae2eb5;"><path d="M184.24-1.76L184.24 0.12L184.24 0.12Q184.10 0.14 183.83 0.23L183.83 0.23L183.83 0.23Q183.57 0.31 183.20 0.41L183.20 0.41L183.20 0.41Q182.83 0.51 182.39 0.59L182.39 0.59L182.39 0.59Q181.95 0.68 181.47 0.68L181.47 0.68L181.47 0.68Q179.59 0.68 178.42 0.11L178.42 0.11L178.42 0.11Q177.25-0.45 176.52-1.38L176.52-1.38L176.52-1.38Q175.79-2.32 175.38-3.51L175.38-3.51L175.38-3.51Q174.97-4.70 174.62-5.94L174.62-5.94L174.62-5.94Q174.28-7.18 173.85-8.37L173.85-8.37L173.85-8.37Q173.43-9.56 172.68-10.49L172.68-10.49L172.68-10.49Q171.92-11.42 170.71-11.99L170.71-11.99L170.71-11.99Q169.50-12.55 167.57-12.55L167.57-12.55L167.57-12.55Q167.24-12.55 166.91-12.54L166.91-12.54L166.91-12.54Q166.58-12.53 166.33-12.51L166.33-12.51L166.33-12.51Q166.07-12.49 165.89-12.48L165.89-12.48L165.89-12.48Q165.70-12.47 165.68-12.47L165.68-12.47L165.68-2.89L165.68-2.89Q165.68-2.58 165.90-2.30L165.90-2.30L165.90-2.30Q166.11-2.01 166.56-1.97L166.56-1.97L168.78-1.80L168.78 0L158.34 0L158.34-1.80L160.51-1.97L160.51-1.97Q160.97-2.01 161.20-2.30L161.20-2.30L161.20-2.30Q161.44-2.58 161.44-2.89L161.44-2.89L161.44-25.29L161.44-25.29Q161.44-25.59 161.20-25.88L161.20-25.88L161.20-25.88Q160.97-26.17 160.51-26.21L160.51-26.21L158.34-26.37L158.34-28.18L169.29-28.18L169.29-28.18Q171.69-28.18 173.60-27.79L173.60-27.79L173.60-27.79Q175.51-27.40 176.84-26.52L176.84-26.52L176.84-26.52Q178.17-25.63 178.88-24.21L178.88-24.21L178.88-24.21Q179.59-22.78 179.59-20.71L179.59-20.71L179.59-20.71Q179.59-19.05 179.01-17.86L179.01-17.86L179.01-17.86Q178.44-16.67 177.48-15.85L177.48-15.85L177.48-15.85Q176.53-15.03 175.28-14.52L175.28-14.52L175.28-14.52Q174.03-14.01 172.70-13.70L172.70-13.70L172.70-13.70Q174.40-13.29 175.42-12.56L175.42-12.56L175.42-12.56Q176.45-11.83 177.04-10.91L177.04-10.91L177.04-10.91Q177.64-9.99 177.93-8.95L177.93-8.95L177.93-8.95Q178.21-7.92 178.44-6.90L178.44-6.90L178.44-6.90Q178.66-5.89 178.95-4.96L178.95-4.96L178.95-4.96Q179.24-4.04 179.84-3.32L179.84-3.32L179.84-3.32Q180.45-2.60 181.48-2.18L181.48-2.18L181.48-2.18Q182.52-1.76 184.24-1.76L184.24-1.76zM175.01-20.53L175.01-20.53L175.01-20.53Q175.01-21.88 174.60-22.92L174.60-22.92L174.60-22.92Q174.19-23.95 173.30-24.67L173.30-24.67L173.30-24.67Q172.41-25.39 171.00-25.76L171.00-25.76L171.00-25.76Q169.60-26.13 167.61-26.13L167.61-26.13L165.68-26.13L165.68-14.62L165.68-14.62Q165.72-14.62 165.97-14.61L165.97-14.61L165.97-14.61Q166.22-14.60 166.53-14.60L166.53-14.60L166.53-14.60Q166.85-14.60 167.19-14.59L167.19-14.59L167.19-14.59Q167.53-14.58 167.77-14.58L167.77-14.58L167.77-14.58Q169.52-14.58 170.87-14.88L170.87-14.88L170.87-14.88Q172.22-15.18 173.15-15.87L173.15-15.87L173.15-15.87Q174.07-16.57 174.54-17.71L174.54-17.71L174.54-17.71Q175.01-18.85 175.01-20.53" fill="#f5f5f5" stroke="none" stroke-width="none" transform="translate(-157.41000366210938,11.049133758544922)" style="fill: rgb(245, 245, 245);"></path></g><g class="path" style="opacity: 1; transform-origin: 40.985px -3.37587px; animation: 1s linear -0.22s infinite normal forwards running fade-dffb8427-00e2-4711-b79b-222665ae2eb5;"><path d="M212.34 0L202.35 0L202.35-1.80L204.77-2.01L204.77-2.01Q204.93-2.01 205.08-2.23L205.08-2.23L205.08-2.23Q205.22-2.44 205.22-2.63L205.22-2.63L205.22-2.63Q205.22-2.71 205.20-2.73L205.20-2.73L202.31-10.42L192.61-10.42L189.82-2.85L189.82-2.85Q189.80-2.81 189.80-2.73L189.80-2.73L189.80-2.73Q189.80-2.48 190.02-2.25L190.02-2.25L190.02-2.25Q190.23-2.01 190.42-2.01L190.42-2.01L192.90-1.80L192.90 0L184.45 0L184.45-1.80L186.89-2.32L196.67-28.85L199.83-28.85L209.57-2.93L209.57-2.93Q209.71-2.50 209.85-2.36L209.85-2.36L209.85-2.36Q209.98-2.21 210.45-2.13L210.45-2.13L212.34-1.80L212.34 0zM201.55-12.43L197.43-23.44L193.35-12.43L201.55-12.43" fill="#f5f5f5" stroke="none" stroke-width="none" transform="translate(-157.41000366210938,11.049133758544922)" style="fill: rgb(131, 26, 25);"></path></g><g class="path" style="opacity: 1; transform-origin: 70.185px -3.04087px; animation: 1s linear -0.165s infinite normal forwards running fade-dffb8427-00e2-4711-b79b-222665ae2eb5;"><path d="M241.60-26.37L239.26-26.21L239.26-26.21Q238.81-26.17 238.60-25.88L238.60-25.88L238.60-25.88Q238.38-25.59 238.38-25.29L238.38-25.29L238.38 0L235.10 0L219.47-23.52L219.47-2.89L219.47-2.89Q219.47-2.58 219.69-2.30L219.69-2.30L219.69-2.30Q219.91-2.01 220.36-1.97L220.36-1.97L222.76-1.80L222.76 0L213.67 0L213.67-1.80L216.07-1.97L216.07-1.97Q216.52-2.01 216.76-2.30L216.76-2.30L216.76-2.30Q216.99-2.58 216.99-2.89L216.99-2.89L216.99-25.29L216.99-25.29Q216.99-25.59 216.76-25.88L216.76-25.88L216.76-25.88Q216.52-26.17 216.07-26.21L216.07-26.21L213.59-26.37L213.59-28.18L221.92-28.18L221.92-27.13L235.90-6.01L235.90-25.29L235.90-25.29Q235.90-25.59 235.68-25.88L235.68-25.88L235.68-25.88Q235.45-26.17 235.02-26.21L235.02-26.21L232.62-26.37L232.62-28.18L241.60-28.18L241.60-26.37" fill="#f5f5f5" stroke="none" stroke-width="none" transform="translate(-157.41000366210938,11.049133758544922)" style="fill: rgb(194, 66, 41);"></path></g><g class="path" style="opacity: 1; transform-origin: 98.005px -3.04087px; animation: 1s linear -0.11s infinite normal forwards running fade-dffb8427-00e2-4711-b79b-222665ae2eb5;"><path d="M267.32-21.47L264.84-21.47L264.24-25.41L264.24-25.41Q264.18-25.74 264.01-25.93L264.01-25.93L264.01-25.93Q263.83-26.13 263.55-26.13L263.55-26.13L257.54-26.13L257.54-2.89L257.54-2.89Q257.54-2.58 257.75-2.30L257.75-2.30L257.75-2.30Q257.97-2.01 258.42-1.97L258.42-1.97L261.11-1.80L261.11 0L249.72 0L249.72-1.80L252.41-1.97L252.41-1.97Q252.86-2.01 253.08-2.30L253.08-2.30L253.08-2.30Q253.29-2.58 253.29-2.89L253.29-2.89L253.29-26.13L247.24-26.13L247.24-26.13Q246.96-26.13 246.76-25.93L246.76-25.93L246.76-25.93Q246.57-25.74 246.52-25.41L246.52-25.41L245.95-21.47L243.51-21.47L243.51-28.18L267.32-28.18L267.32-21.47" fill="#f5f5f5" stroke="none" stroke-width="none" transform="translate(-157.41000366210938,11.049133758544922)" style="fill: rgb(221, 132, 55);"></path></g><g class="path" style="opacity: 1; transform-origin: 121.925px -3.04087px; animation: 1s linear -0.055s infinite normal forwards running fade-dffb8427-00e2-4711-b79b-222665ae2eb5;"><path d="M289.55 0L269.12 0L269.12-1.80L271.56-1.97L271.56-1.97Q272.02-2.01 272.23-2.30L272.23-2.30L272.23-2.30Q272.45-2.58 272.45-2.89L272.45-2.89L272.45-25.29L272.45-25.29Q272.45-25.59 272.23-25.88L272.23-25.88L272.23-25.88Q272.02-26.17 271.56-26.21L271.56-26.21L269.12-26.37L269.12-28.18L279.85-28.18L279.85-26.37L277.61-26.21L277.61-26.21Q277.16-26.17 276.93-25.88L276.93-25.88L276.93-25.88Q276.69-25.59 276.69-25.29L276.69-25.29L276.69-2.05L285.51-2.05L285.51-2.05Q285.80-2.05 286.09-2.27L286.09-2.27L286.09-2.27Q286.39-2.48 286.43-2.77L286.43-2.77L287.11-7.81L289.55-7.81L289.55 0" fill="#f5f5f5" stroke="none" stroke-width="none" transform="translate(-157.41000366210938,11.049133758544922)" style="fill: rgb(238, 180, 64);"></path></g><g class="path" style="opacity: 1; transform-origin: 146.025px -3.04087px; animation: 1s linear 0s infinite normal forwards running fade-dffb8427-00e2-4711-b79b-222665ae2eb5;"><path d="M316.17-26.37L313.89-25.96L305.44-11.98L305.44-2.89L305.44-2.89Q305.44-2.58 305.67-2.30L305.67-2.30L305.67-2.30Q305.89-2.01 306.33-1.97L306.33-1.97L309.01-1.80L309.01 0L297.67 0L297.67-1.80L300.28-1.97L300.28-1.97Q300.73-2.01 300.96-2.30L300.96-2.30L300.96-2.30Q301.20-2.58 301.20-2.89L301.20-2.89L301.20-11.34L293.14-25.88L290.70-26.37L290.70-28.18L300.67-28.18L300.67-26.37L298.55-26.17L298.55-26.17Q298.22-26.13 298.10-25.98L298.10-25.98L298.10-25.98Q297.98-25.84 297.98-25.68L297.98-25.68L297.98-25.68Q297.98-25.47 298.06-25.33L298.06-25.33L303.99-14.36L310.49-25.20L310.49-25.20Q310.57-25.35 310.57-25.49L310.57-25.49L310.57-25.49Q310.57-25.72 310.40-25.88L310.40-25.88L310.40-25.88Q310.22-26.04 310.00-26.09L310.00-26.09L307.64-26.37L307.64-28.18L316.17-28.18L316.17-26.37" fill="#f5f5f5" stroke="none" stroke-width="none" transform="translate(-157.41000366210938,11.049133758544922)" style="fill: rgb(216, 206, 167);"></path></g></g>
</g>
</g>
<style id="fade-dffb8427-00e2-4711-b79b-222665ae2eb5" data-anikit="">@keyframes fade-dffb8427-00e2-4711-b79b-222665ae2eb5
{
  0% {
    animation-timing-function: cubic-bezier(0.2057,0.573,0.3723,0.9184);
    opacity: 1;
  }
  100% {
    opacity: 0;
  }
}</style></svg>